<svg xmlns="http://www.w3.org/2000/svg" viewBox="0 0 110.64 51.71"><defs><style>.cls-1{fill:#7ef7f7;}.cls-2{fill:#e7f7f7;}.cls-3{fill:#fdfefd;}.cls-4{fill:#0c1339;}.cls-5{fill:#222;}.cls-6{fill:#03b9b8;}.cls-7{fill:#178482;}.cls-8{fill:#036f70;}.cls-9{fill:#1dc530;}.cls-10{fill:#1bd5d0;}.cls-11{fill:#342721;}.cls-12{fill:#c48f68;}.cls-13{fill:#fbc530;}.cls-14{fill:#704d3a;}.cls-15{fill:#553600;}.cls-16{fill:#444;}.cls-17{fill:#296bba;}.cls-18{fill:#6654bf;}</style></defs><title>k2</title><g id="Layer_2" data-name="Layer 2"><g id="Layer_1-2" data-name="Layer 1"><path class="cls-1" d="M0,0H110.16c.39,0,.48.09.48.47q0,25.62,0,51.23H106.3l-3.6,0c.08-.54-.15-.67-.67-.66a27.21,27.21,0,0,1-3.38,0,2,2,0,0,0-.32-.73A4.4,4.4,0,0,0,98,49.11c0-.13-.1-.26-.14-.39-.36-1.14-1-2.22-.84-3.5h7.64l-4-7c.14-.24.37-.13.56-.13.69,0,1.38,0,2.16,0-.58-1-1.12-1.94-1.64-2.86-.71-1.23-1.4-2.47-2.1-3.71h2.61a2,2,0,0,0-.12-.25c-1.66-2.88-3.33-5.75-5-8.63-.59-1-1.24-2.05-1.76-3.13.32.13.56.08.4-.32a1,1,0,0,1,.44-1.29c.09-.07.21-.14.15-.29s-.21-.12-.32-.11a1,1,0,0,1-1.15-.73c0-.11-.11-.29-.26-.26s-.2.17-.21.27c-.06.65-.57.72-1,.86-.12,0-.28,0-.39.17a1.5,1.5,0,0,1,.74,1.72c-.06.29.18.11.3.07l-2,3.56a20.24,20.24,0,0,0-1.32,2.42,1.64,1.64,0,0,0-.6,1l-2.92,5c.55,0,1,0,1.41,0s.85-.12,1.25.1l-1.28,2.17a1.32,1.32,0,0,1-.84-.7.73.73,0,0,0-1-.4.53.53,0,0,1-.67-.17.88.88,0,0,0-1.47,0,.48.48,0,0,1-.57.18.86.86,0,0,0-1.17.52c-.12.33-.29.36-.56.36a5.08,5.08,0,0,1-.67,0c-.21,0-.42-.12-.35-.39s-.09-.26-.3-.23c-.46.06-1-.15-1.11-.46-.1-.51-.3-.28-.53-.24-.08,0-.2.07-.24,0-.41-.4-1.18-.22-1.43-.88,0,0-.1-.06-.12-.05-.5.35-1,0-1.43-.1s-.83,0-1-.5c0-.1-.19-.06-.27,0a.85.85,0,0,1-.69.12c-.5-.05-1-.15-1.48-.18A.67.67,0,0,1,72,30.3c0,.45-.25.42-.51.42a7,7,0,0,0-1.88,0c-.33.08-.48-.17-.72-.43.08.48-.38.37-.5.61l-.25-.72a13.1,13.1,0,0,0-2-4.12,2.45,2.45,0,0,1-.69-1.22c0-.15-.07-.32-.3-.18L65,24.41c.14-.58.2-.61.71-.31l.23.11c.25.12.53.2.7-.07s-.15-.37-.29-.52a1.16,1.16,0,0,0-.24-.2.59.59,0,0,1-.41-.66.68.68,0,0,0-.4-.67,1.52,1.52,0,0,0-2.18,1.18c0,.56-.1,1.14.36,1.64.14.15.15.28.34.12s.35-.13.34.17v.36l-.78.82a2.36,2.36,0,0,0,.26.14c.41.15.52.32.18.71s-.91,1-1.36,1.46a.47.47,0,0,1-.47.11l-2.45-.18c-.21,0-.31-.21-.39-.39A1.17,1.17,0,0,0,59,27.6a.36.36,0,0,1,.08-.5c.32-.25.28-.42-.11-.54a2.73,2.73,0,0,1-.45-.23.2.2,0,0,1,0-.26c.48-.17.57-.49.36-.93.1,0,.24-.06.18-.19s0-.62-.29-.85a.53.53,0,0,0-.1-.52,1.05,1.05,0,0,0-1.17-.26c-.54.16-.7.62-.81,1.09s.19.61.53.74a.33.33,0,0,1,.18.23l.1.38c-.22-.06-.33,0-.3.26.09.64-.33,1-.72,1.42,0-.21.2-.44-.14-.62-1.69-.85-3.35-1.74-5-2.6-.23-.12-.51-.39-.73-.26s0,.45,0,.7a22.44,22.44,0,0,0,0,2.32c.13,1.9.14,3.8.2,5.71a.42.42,0,0,1-.38.5c-.57.1-1.14.22-1.72.31a2.52,2.52,0,0,1-.81.09c-.38-.06-.06-.5-.29-.68l0,0a8.64,8.64,0,0,0,.15-1c0-.34-.09-.55-.45-.61-.54-.1-1.07-.22-1.6-.33.44-.26,1-.22,1.42-.51.23-.16.43-.34.29-.63a1.58,1.58,0,0,0-1.12-.9c-.48-.09-.74.28-.93.65s-.34.72-.51,1.1a3,3,0,0,1-.56-1c-.3-.62-.54-.68-1.12-.3a2.51,2.51,0,0,0-.32.25c-.62.53-.6.64.12,1a1.62,1.62,0,0,1-.9,0l-2.51-.26c-.08-.29-.06-.57.21-.71.45-.22.3-.38,0-.6a4.67,4.67,0,0,1-.4-.38c0-.29.1-.49.45-.39.16.05.19-.05.24-.18a1.69,1.69,0,0,0,.08-1.27c0-.52-.26-.77-.72-.92a1.44,1.44,0,0,0-1.64.52,1.68,1.68,0,0,1-1.62.65,1.86,1.86,0,0,0-1.73.61,2,2,0,0,1-2,.73,1.85,1.85,0,0,0-2,1.11,6.07,6.07,0,0,0-.51,1.65s-.07,0-.08-.07a16.5,16.5,0,0,1-.8-4.31c0-.79,0-1.59.06-2.39.06-1.88.25-3.75.38-5.63,0-.32-.14-.36-.38-.22a7.44,7.44,0,0,1-.67.37.69.69,0,0,0-.5.79c0,.55,0,1.1,0,1.65s-.09.62-.59.63-.58-.24-.56-.66,0-.61,0-.92c0-1.35,0-1.35-1.25-1.87-.11,0-.21-.23-.35-.1s-.05.26,0,.4c.1,1.07.2,2.14.29,3.21.08.85.15,1.7.2,2.55a18.53,18.53,0,0,1,.08,3.07,33.41,33.41,0,0,1-1.16,4.79,14.46,14.46,0,0,0-.64,2.34l-1.26.33-.21-.24a4.49,4.49,0,0,0-.61-1.06c-.09-.16-.15-.27.1-.3s.15-.14.13-.3A2,2,0,0,0,21.4,32a.5.5,0,0,0-.41-.57.63.63,0,0,0-.71.28,2.89,2.89,0,0,1-.38.47.89.89,0,0,0,.14,1.5,2,2,0,0,0,.76.31c.25.16.49.33.4.69-.5.34-.59,1-.93,1.41-.24-.39-.49-.78-.72-1.18l-3.45-6c0-.49-.24-1,.35-1.34a.15.15,0,0,0-.12-.27c-.64.08-.88-.38-1.18-1-.09.85-.65,1-1.35,1.16a1.12,1.12,0,0,1,.65,1.39c-.63,1.07-1.26,2.13-1.89,3.21C11.71,33.53,10.87,35,10,36.47c-.2.33-.16.44.24.43s1,0,1.44,0L9.17,41.28c-.14.25-.19.4.2.39s1.06,0,1.59,0L8,46.8h1.3c1.41,0,2.82-.06,4.23,0,0,1.24,0,2.48,0,3.72,0,.4-.12.49-.49.48-.72,0-1.45,0-2.17,0s-.66,0-.65.66H.75C0,51.71,0,51.7,0,51Z"/><path class="cls-2" d="M36.92,23.64a1.79,1.79,0,0,0,.87-.1,17,17,0,0,0-1.74-1,2.34,2.34,0,0,0-2.25,0c-.23.14-.56.31,0,.51a.59.59,0,0,1,.35.36c0,.32.13.41.44.38Z"/><path class="cls-3" d="M47.53,32.88l0,0c.23.18-.09.62.29.68a2.52,2.52,0,0,0,.81-.09c.58-.09,1.15-.21,1.72-.31a.42.42,0,0,0,.38-.5c-.06-1.91-.07-3.81-.2-5.71a22.44,22.44,0,0,1,0-2.32c0-.25-.25-.57,0-.7s.5.14.73.26c1.68.86,3.34,1.75,5,2.6.34.18.11.41.14.62a18.85,18.85,0,0,0-1.07,2.43,20.7,20.7,0,0,0-.69,7.22,31.61,31.61,0,0,0,.55,4.54,1.22,1.22,0,0,1,0,.8c-.43,1-.84,1.91-1.28,2.86-.56,1.21-1.14,2.42-1.71,3.62a2.08,2.08,0,0,0-.38.72c-.43.7-.43.7.24,1.14a.26.26,0,0,1,.16.28H49.36L49,50.9a7.76,7.76,0,0,0-6-2.52c-.76,0-1.48.25-2.23.33a14.31,14.31,0,0,0-4.13-.32c0-.07,0-.14,0-.2.69-3,.93-6,1.46-9a.56.56,0,0,0,.43-.48A21.19,21.19,0,0,0,38.92,36a8.52,8.52,0,0,0,2.76-.13,5.82,5.82,0,0,1,2.52-.27.94.94,0,0,0,.79-.31l1.32-.12a.78.78,0,0,0,.8-.64A15.16,15.16,0,0,0,47.53,32.88Z"/><path class="cls-3" d="M23.91,34.76a14.46,14.46,0,0,1,.64-2.34,33.41,33.41,0,0,0,1.16-4.79,18.53,18.53,0,0,0-.08-3.07c-.05-.85-.12-1.7-.2-2.55-.09-1.07-.19-2.14-.29-3.21,0-.14-.07-.3,0-.4s.24.06.35.1c1.25.52,1.25.52,1.25,1.87,0,.31,0,.62,0,.92s0,.67.56.66.62-.17.59-.63,0-1.1,0-1.65a.69.69,0,0,1,.5-.79,7.44,7.44,0,0,0,.67-.37c.24-.14.4-.1.38.22-.13,1.88-.32,3.75-.38,5.63,0,.8,0,1.6-.06,2.39a16.5,16.5,0,0,0,.8,4.31s.05.05.08.07a4.53,4.53,0,0,0,.4,1.33,2.17,2.17,0,0,0,0,.36c.84,2.61,1.65,5.23,2.57,7.81a.39.39,0,0,0,.45.32c.19,0,.38,0,.57,0a2.15,2.15,0,0,1,0,1.44c-.85,2-1.79,3.91-2.72,5.85-.15,0-.16-.15-.18-.27a3.26,3.26,0,0,0-.49-1c-.12-.19-.23-.26-.4,0a4,4,0,0,0-.59,1.24A4.2,4.2,0,0,0,29.61,50a4.27,4.27,0,0,0-2.21-.57c-.31,0-.35.11-.26.37A5.11,5.11,0,0,0,27.77,51l-.44,0c-1.33,0-2.65-.06-4,0L23.26,51c0-.23-.2-.2-.33-.23-.37-.11-.75-.19-1.12-.29a68,68,0,0,0,1.44-6.92c.3-.06.72.06.73-.49a19.92,19.92,0,0,0-.27-3.78c.12-.48.52-.2.79-.29.18.21.11.45.07.68a9.15,9.15,0,0,1-.18.91c-.09.3,0,.39.3.39h5.43c.28,0,.41-.06.34-.39-.32-1.54-.61-3.09-.93-4.63-.46-2.22-1-4.42-1.39-6.64-.1-.52-.24-.84-.84-.75-.18,0-.4.05-.42-.24s.06-.49.34-.56a1.41,1.41,0,0,1,.41,0,.26.26,0,0,0,.28-.24c.12-.56,0-.81-.59-.9-.05,0-.12,0-.15,0-.25-.23-.37,0-.37.16a5.79,5.79,0,0,0-.11,1.43,3.16,3.16,0,0,1-.07,1.37A35.5,35.5,0,0,0,26,33.18,15.45,15.45,0,0,1,23.91,34.76Zm4.19-10.6c0-.08-.1-.15-.12-.12a2.12,2.12,0,0,1-1.18.74s0,0,0,0c.11.33-.28.78.23,1,.14.07,0,.09,0,.12a.12.12,0,0,0,0,.21.15.15,0,0,0,.25-.06c.07-.25.25-.28.47-.28a.21.21,0,0,0,.2-.2C28,25.15,27.76,24.62,28.1,24.16Zm-.2-.93c.12-.5-.13-.57-.58-.6s-.53.29-.55.67.15.6.61.61S28,23.65,27.9,23.23ZM26,45.15a.46.46,0,0,0,.66.16c.27-.17.24-.44.15-.76C26.67,45,26.29,45,26,45.15ZM28,46.33c.19.11.29.34.49.25s.28-.27.2-.56C28.48,46.28,28.22,46.24,28,46.33Z"/><path class="cls-4" d="M27.33,51l.44,0c1.29-.06,2.58,0,3.87-.06L33,51h5.48l10.23,0A.42.42,0,0,0,49,50.9l.35.15.51,0c1.4.07,2.8-.11,4.2-.11a10.79,10.79,0,0,0,2.54,0l3,0a11,11,0,0,0,2.29,0h1.15c.18,0,.37,0,.56,0h5.83A2.5,2.5,0,0,0,70.3,51h2.5A3.13,3.13,0,0,0,74,51a2.28,2.28,0,0,0,1.86.09L76.5,51c0,.05.07.16.1.16a4.07,4.07,0,0,0,1.77-.07c3.74,0,7.48,0,11.21,0a17.78,17.78,0,0,0,2.73,0l0-4.59a.15.15,0,0,0-.11-.15,6.12,6.12,0,0,0,.43-1.1h1.43s.15.06.16.1a7,7,0,0,0,1,1.76c.41.73,1,1.29,1.44,2a.61.61,0,0,0,.53.36.22.22,0,0,0,0,.08c-.38.25-.1.62-.18.92s-.56.12-.55.54h2.21A27.21,27.21,0,0,0,102,51c.52,0,.75.12.67.66-.18,0-.37,0-.56,0H10.83l-.57,0c0-.66,0-.66.65-.66s1.45,0,2.17,0c.37,0,.5-.08.49-.48,0-1.24,0-2.48,0-3.72H17c0,1,0,2.08,0,3.12s0,1.15,1.16,1.05c0,0,.06,0,.09,0h2.07a1.69,1.69,0,0,0,.92,0h2.06l.09.06C24.68,51.08,26,51.1,27.33,51Z"/><path class="cls-3" d="M74,51a3.13,3.13,0,0,1-1.22,0l-.24-.61-.42-1.06-.27-.82a46.57,46.57,0,0,1-1.91-6c-.24-1.1-.33-2.24-.67-3.32.26-.07.36-.2.32-.51-.08-.65-.09-1.32-.13-2h2c.12,0,.25,0,.3-.14s0-.25-.18-.32a1.1,1.1,0,0,0-.53-.16,3.68,3.68,0,0,0-1.61.21l-.08-.84a5.81,5.81,0,0,0,2.12,0c.17,0,.29-.07.3-.27s0-.34-.24-.38l-.3-.08c-.67-.25-1.3.08-1.95.11-.27-1.33-.5-2.66-.86-4,.12-.24.58-.13.5-.61.24.26.39.51.72.43a7,7,0,0,1,1.88,0c.26,0,.52,0,.51-.42a.67.67,0,0,0,.65.44c.49,0,1,.13,1.48.18a.85.85,0,0,0,.69-.12c.08-.07.24-.11.27,0,.13.54.62.43,1,.5s.93.45,1.43.1c0,0,.11,0,.12.05.25.66,1,.48,1.43.88,0,0,.16,0,.24,0,.23,0,.43-.27.53.24.07.31.65.52,1.11.46.21,0,.39-.12.3.23s.14.37.35.39a5.08,5.08,0,0,0,.67,0l-.17.21c-.21,0-.22.25-.32.38-.76.15-.82.22-.74.94,0,.11,0,.26-.12.18-.31-.18-.25.08-.31.21s-.07.37-.18.47c-.8.7-1.49,1.58-2.64,1.76l-.2-.06c-.06-.37-.57-.74,0-1.11a1.36,1.36,0,0,0,.35,0c.21,0,.58.14.58-.14s-.41-.2-.65-.23c-.06,0-.13,0-.19.07l0-.37c.19-.24.51-.14.75-.25s.41-.47.25-.66a1.55,1.55,0,0,0-1.49,0c-.18,0-.26-.15-.34-.28-.48-.7-.91.2-1.39,0-.14,0-.38.16-.33.32.13.41-.14.75-.11,1.13s.09.44.36.49c.08,0,.17,0,.2.12.18.53.51.46.88.24.17.05.12.21.15.33a.87.87,0,0,0-.25.32,11.62,11.62,0,0,0-.79,2.62,25.78,25.78,0,0,0-.45,5.68c0,.15,0,.32.18.37a23.24,23.24,0,0,0-1.19,4.34Zm-3.5-19.75h-1c-.3,0-.43.17-.36.43a5.11,5.11,0,0,1,.08,1.74c0,.56.23.76.69.8a7.1,7.1,0,0,0,1.13,0c.47,0,.77-.23.68-.79a2.2,2.2,0,0,1,.07-.76c.24-1.27.1-1.44-1.15-1.44Zm1.65,1.45v.47c0,1,.1,1.11,1.09,1.14a2.28,2.28,0,0,0,.95-.2.36.36,0,0,0,.23-.31c.09-.59.2-1.18.3-1.77,0-.25,0-.46-.33-.46A11.3,11.3,0,0,1,73,31.34c-.77-.1-.82,0-.82.72ZM76,34.33c.26-.09.77.12.93-.43s.15-.84.23-1.26a.42.42,0,0,0-.38-.55c-.43-.09-.87-.19-1.3-.3-.26-.07-.38,0-.39.29s-.07.85-.14,1.27c-.16,1-.09.79.73,1A1.6,1.6,0,0,0,76,34.33Zm2.38,0c.18-.07.46.13.62-.16a.94.94,0,0,0-.39-1.4l-.17-.11c-.67-.36-.84-.28-1,.45,0,.05,0,.11,0,.16C77.22,34.32,77.23,34.33,78.35,34.34Zm-5.18,1.23a2.74,2.74,0,0,0,.84-.09c.27-.06.22-.28.27-.44s-.14-.19-.25-.23a2.74,2.74,0,0,0-1.7,0,.32.32,0,0,0-.27.37c0,.19.11.25.28.3A2.52,2.52,0,0,0,73.17,35.57Zm-.07,1.14h.82c.12,0,.25,0,.29-.15s-.06-.25-.19-.31a2.27,2.27,0,0,0-1.79,0,.21.21,0,0,0-.14.29c0,.12.13.14.24.14ZM80,34.54c.43.09.55-.17.59-.51s-.57-.73-.8-.67c-.39.11-.31.53-.35.81S79.75,34.51,80,34.54Zm-.35,1.35c.39.09.53-.21.55-.53s-.32-.37-.59-.4c-.48-.08-.46.32-.5.59S79.37,35.88,79.65,35.89Z"/><path class="cls-5" d="M69.33,35.46l.08.84.07.41c0,.66,0,1.33.13,2,0,.31-.06.44-.32.51h-2c-1,0-1,0-1.19-.9L66,38c-.08.33-.17.59-.21.85s-.18.36-.46.31S64.53,39,64.12,39a1,1,0,0,0-.3-.05c-.48,0-.64-.19-.68-.69-.09-1.2-.11-2.4-.09-3.6a1.46,1.46,0,0,1,.55-.11,5.06,5.06,0,0,0,2.74-1,3.18,3.18,0,0,0,1.18-2.42c0-.78,0-.76-.75-1.05-.24-.08-.57,0-.7-.32.25-.16.56-.33.54-.63s-.37-.05-.54-.15-.08,0-.1,0c-.24-.38-.35-.07-.44.1a1,1,0,0,1-.87.61c-1.11.2-2.22.43-3.32.68a.68.68,0,0,1-.75-.26,5.87,5.87,0,0,0-1-1.13l0-.26L62,28.8a.47.47,0,0,0,.47-.11c.45-.49.92-1,1.36-1.46s.23-.56-.18-.71a2.36,2.36,0,0,1-.26-.14l.78-.82a4.92,4.92,0,0,0,1-.9c.23-.14.29,0,.3.18a2.45,2.45,0,0,0,.69,1.22,13.1,13.1,0,0,1,2,4.12l.25.72c.36,1.3.59,2.63.86,4A1.36,1.36,0,0,0,69.33,35.46Z"/><path class="cls-6" d="M95.31,19.54c.52,1.08,1.17,2.09,1.76,3.13,1.65,2.88,3.32,5.75,5,8.63a2,2,0,0,1,.12.25H94.69a1.56,1.56,0,0,1-.31-.6c0-2,0-4,0-6,0-.35.09-.55.44-.6.21-.7.15-.83-.43-.88V19.36A.83.83,0,0,1,95.31,19.54Z"/><path class="cls-7" d="M13.66,46.84h-.09c-1.41-.09-2.82,0-4.23,0H8L11,41.69c1.22,0,2.43,0,3.65,0,.34,0,.49-.07.49-.45,0-1.44,0-2.88,0-4.32h0l3.76,0,1,1.67a13.84,13.84,0,0,0-.19,2.8c0,.31.11.64-.08.93V40.78c-.13.89-.13.89-1.05.89H15.63c-.18,0-.42-.06-.42.23,0,.54,0,1.07,0,1.61,0,.22.2.2.31.29a1.14,1.14,0,0,1-.26,0c-.33,0-.48,0-.48.42s.15.47.48.42a1.14,1.14,0,0,1,.26,0,.45.45,0,0,0-.32.5,4.26,4.26,0,0,1,0,.62c0,1.07.14.91-.91.93C14.08,46.75,13.84,46.66,13.66,46.84Zm3.8-7.74c.35.08.44-.08.44-.41s-.08-.45-.43-.44-.45.08-.44.43S17.1,39.18,17.46,39.1Z"/><path class="cls-8" d="M100.58,38.26l4,7H97a.39.39,0,0,1-.45-.36c-.13-.51-.31-1-.42-1.52s-.11-1-.22-1.52c-.18-.78-.39-1.55-.59-2.33a4.55,4.55,0,0,1,.45-1.33H100A1,1,0,0,1,100.58,38.26Z"/><path class="cls-5" d="M30.3,32.46a4.53,4.53,0,0,1-.4-1.33,6.07,6.07,0,0,1,.51-1.65,1.85,1.85,0,0,1,2-1.11,2,2,0,0,0,2-.73A1.86,1.86,0,0,1,36.09,27a1.68,1.68,0,0,0,1.62-.65,1.44,1.44,0,0,1,1.64-.52c.46.15.75.4.72.92a1.21,1.21,0,0,1-.71.21c-.15,0-.31,0-.28.21.08.38-.17.68-.21,1s-.27.5-.4.76a1.45,1.45,0,0,1-1.12.87,1.86,1.86,0,0,0-1.64,1.36,4.22,4.22,0,0,1-1.4,2A3,3,0,0,1,30.3,32.46Z"/><path class="cls-7" d="M100.58,38.26a1,1,0,0,0-.6-.1H95.75l0-.29a5.08,5.08,0,0,0,.07-1.78,12.77,12.77,0,0,0-1.11-4.55h4.87c.7,1.24,1.39,2.48,2.1,3.71.52.92,1.06,1.84,1.64,2.86-.78,0-1.47,0-2.16,0C101,38.13,100.72,38,100.58,38.26Zm-3.72-4.63c.07-.31,0-.46-.39-.44s-.46,0-.45.4,0,.5.44.49S96.93,34,96.86,33.63Z"/><path class="cls-9" d="M54.71,37.09a20.7,20.7,0,0,1,.69-7.22,18.85,18.85,0,0,1,1.07-2.43c.39-.4.81-.78.72-1.42,0-.23.08-.32.3-.26.26.32.67.37,1,.57a2.73,2.73,0,0,0,.45.23c.39.12.43.29.11.54a.36.36,0,0,0-.08.5,1.17,1.17,0,0,1,.17.63c-.33-.09-.45-.4-.67-.61a1.09,1.09,0,0,0-1.81.4,3.85,3.85,0,0,0,.92,3.16,3.09,3.09,0,0,0,2.35,1.61l0,.91c-.08.16-.36.06-.4.28-.41.06-.63-.31-1-.44-.52-.22-.36.65-.85.53-.07,0-.09.17-.05.27s.08.06.11.1a.77.77,0,0,0,.6.23,7.46,7.46,0,0,0,1.63-.17v0a15.35,15.35,0,0,1-.12,2.25l-.23.12a5.82,5.82,0,0,0-1.31.18A34.94,34.94,0,0,1,54.71,37.09Z"/><path class="cls-9" d="M34.31,33.2a4.22,4.22,0,0,0,1.4-2,1.86,1.86,0,0,1,1.64-1.36A1.45,1.45,0,0,0,38.47,29c.13-.26.27-.51.4-.76l.43.39a4.67,4.67,0,0,0,.4.38c.3.22.45.38,0,.6-.27.14-.29.42-.21.71v1.43c-.08.22-.15.05-.17,0-.12-.36-.23-.72-.34-1.08a.87.87,0,0,0-.8-.63,1,1,0,0,0-1,.39,3,3,0,0,0-.45,1.81,4.14,4.14,0,0,0,.5,2.47A3.86,3.86,0,0,0,38.92,36a21.19,21.19,0,0,1-.42,2.73.56.56,0,0,1-.43.48.64.64,0,0,0-.2,0A8,8,0,0,1,35,38.81a5.85,5.85,0,0,0-1.33-.47.88.88,0,0,0,0-.14c-.64-.11-.6-.57-.47-1C33.52,35.85,33.8,34.49,34.31,33.2Z"/><path class="cls-9" d="M19.53,42.32c.19-.29,0-.62.08-.93a13.69,13.69,0,0,1,.19-2.79c.08-.6.16-1.19.25-1.78.24-.21.21-.5.22-.77.34-.45.43-1.07.93-1.41a2.21,2.21,0,0,0,1.24.21l.21.24A2.09,2.09,0,0,1,23,36.32a9,9,0,0,1-.92-.3.77.77,0,0,0-.94.15.81.81,0,0,0-.09,1,3.34,3.34,0,0,0,1.46,1.35c.38.26.89.31,1.18.71A19.92,19.92,0,0,1,24,43.05c0,.55-.43.43-.73.49H20.48a.59.59,0,0,0-.43-.08c-.51-.07-.56-.41-.51-.82C19.55,42.53,19.53,42.42,19.53,42.32Z"/><path class="cls-6" d="M20.27,36.05c0,.27,0,.56-.22.77a8.23,8.23,0,0,1-1.21.1l-3.76,0c0-1.77,0-3.54,0-5.31,0-.28-.16-.53-.08-.81a7.51,7.51,0,0,0,.07-1.64c0-.16-.05-.27-.22-.29.2-.38.53-.24.77-.11a1.33,1.33,0,0,0,.46.13l3.45,6C19.78,35.27,20,35.66,20.27,36.05Zm-3.86-5c.07-.33-.06-.45-.4-.44s-.5.06-.49.45.09.45.44.45S16.49,31.48,16.41,31.09Z"/><path class="cls-10" d="M14.87,28.85c.17,0,.23.13.22.29A7.51,7.51,0,0,1,15,30.78c-.08.28.08.53.08.81,0,1.77,0,3.54,0,5.31H11.69c-.48,0-1,0-1.44,0s-.44-.1-.24-.43c.86-1.47,1.7-2.94,2.55-4.41.63-1.08,1.26-2.14,1.89-3.21C14.59,29,14.73,28.8,14.87,28.85Z"/><path class="cls-6" d="M11.69,36.92h3.39c0,1.44,0,2.88,0,4.32,0,.38-.15.45-.49.45-1.22,0-2.43,0-3.65,0-.53,0-1.06,0-1.59,0s-.34-.14-.2-.39Z"/><path class="cls-10" d="M94.39,19.36v4.11c-.45,0-.32.32-.34.57s.19.3.41.3a2.17,2.17,0,0,1,.36,0c-.35,0-.44.25-.44.6,0,2,0,4,0,6a10.64,10.64,0,0,0-1.9-2.23.92.92,0,0,1-.27-.58c0-.16-.07-.38-.32-.21l-.09-.26a1,1,0,0,1,.33-.5.71.71,0,0,0,.11-1c-.39-.64-.65-.74-1.61-.55A20.24,20.24,0,0,1,92,23.19c.67-1.19,1.35-2.37,2-3.55Z"/><path class="cls-11" d="M95.3,39.49c.2.78.41,1.55.59,2.33.11.49.12,1,.22,1.52s.29,1,.42,1.52a.39.39,0,0,0,.45.36c-.18,1.28.48,2.36.84,3.5,0,.13.09.26.14.39-.18.3-.53.2-.78.32a.61.61,0,0,1-.53-.36c-.41-.73-1-1.29-1.44-2a7,7,0,0,1-1-1.76s-.11-.06-.16-.1l-.85-1.85a.78.78,0,0,1,.19-.56A16.79,16.79,0,0,0,95,40.15C95.05,39.93,95,39.62,95.3,39.49Z"/><path class="cls-12" d="M23,36.32a2.09,2.09,0,0,0-.37-1.23l1.26-.33a15.45,15.45,0,0,0,2-1.58c.17-.08.19-.26.26-.42s.06-.68.55-.4c.1,0,.29-.18.36,0s0,.35-.16.5a2.84,2.84,0,0,0-.58.77,9,9,0,0,1-1.05,2,9.55,9.55,0,0,1-1.28,1.13c.65.25.91-.25,1.26-.5.68-.46,1.51-.78,1.73-1.71,0,0,.09-.23.13-.12.14.33.37,0,.54.13a.56.56,0,0,1-.19.57,2.86,2.86,0,0,0-.74,1.1A4.76,4.76,0,0,1,24.5,39c-.27.09-.67-.19-.79.29-.29-.4-.8-.45-1.18-.71a9.77,9.77,0,0,1,.58-1.73C23.2,36.67,23.29,36.45,23,36.32Z"/><path class="cls-6" d="M42.9,30.55c-.72-.37-.74-.48-.12-1a2.51,2.51,0,0,1,.32-.25c.58-.38.82-.32,1.12.3a3,3,0,0,0,.56,1c.17-.38.32-.75.51-1.1s.45-.74.93-.65a1.58,1.58,0,0,1,1.12.9c.14.29-.06.47-.29.63-.43.29-1,.25-1.42.51-.29,0-.3.27-.32.45-.07,1.12-.31,2.22-.44,3.33,0,.15,0,.31-.18.38s-.14,0-.14,0c-.09-.48-.33-.42-.65-.21-.06,0-.16,0-.25,0,.06-1.11.14-2.22.18-3.33,0-.77,0-.77-.74-.8A.18.18,0,0,0,42.9,30.55Z"/><path class="cls-10" d="M89.77,31.65c-.4-.22-.84-.07-1.25-.1s-.86,0-1.41,0l2.92-5,.14.18c0,.23,0,.47,0,.71a.87.87,0,0,0,.43.74c.48,0,.44.25.45.53-.2.23-.48.38-.63.65.16.22.64.17.54.51s-.11.91-.28,1.34a.34.34,0,0,0,0-.1s0-.05,0-.08a.13.13,0,0,0,0,.07c0,.38-.16.45-.48.43A.84.84,0,0,0,89.77,31.65Z"/><path class="cls-8" d="M44.69,35.08c.19-.07.17-.23.18-.38.13-1.11.37-2.21.44-3.33,0-.18,0-.43.32-.45.53.11,1.06.23,1.6.33.36.06.45.27.45.61a8.64,8.64,0,0,1-.15,1,15.16,15.16,0,0,1-.42,1.64.78.78,0,0,1-.8.64L45,35.28C44.87,35.24,44.69,35.29,44.69,35.08Z"/><path class="cls-13" d="M82.07,33.84l.17-.21c.27,0,.44,0,.56-.36A.86.86,0,0,1,84,32.75a.48.48,0,0,0,.57-.18.88.88,0,0,1,1.47,0,.53.53,0,0,0,.67.17.73.73,0,0,1,1,.4,1.32,1.32,0,0,0,.84.7c.09.24.31.42.22.71-1.11-.16-2.23-.31-3.36-.38-.11-.2-.31-.1-.46-.11H82.53C82.36,34,82.14,34.1,82.07,33.84Z"/><path class="cls-8" d="M57.58,31.18A3.85,3.85,0,0,1,56.66,28a1.09,1.09,0,0,1,1.81-.4c.22.21.34.52.67.61.08.18.18.35.39.39,0,.09,0,.17,0,.26l-.27.23A5.88,5.88,0,0,0,57.58,31.18Z"/><path class="cls-13" d="M94.39,19.36l-.42.28c-.12,0-.36.21-.3-.08a1.5,1.5,0,0,0-.74-1.72c.11-.2.27-.14.39-.17.47-.14,1-.21,1-.86,0-.1.13-.26.21-.27s.23.15.26.26a1,1,0,0,0,1.15.73c.11,0,.26,0,.32.11s-.06.22-.15.29a1,1,0,0,0-.44,1.29c.16.4-.08.45-.4.32A.83.83,0,0,0,94.39,19.36Z"/><path class="cls-5" d="M63.11,23.27a1.52,1.52,0,0,1,2.18-1.18.68.68,0,0,1,.4.67.59.59,0,0,0,.41.66,1.16,1.16,0,0,1,.24.2c.14.15.44.26.29.52s-.45.19-.7.07l-.23-.11c-.51-.3-.57-.27-.71.31-.29-.14-.57-.26-.49-.7,0-.23-.17-.34-.38-.23A.8.8,0,0,1,63.11,23.27Z"/><path class="cls-10" d="M34.12,23.45a.59.59,0,0,0-.35-.36c-.53-.2-.2-.37,0-.51a2.34,2.34,0,0,1,2.25,0,17,17,0,0,1,1.74,1,1.79,1.79,0,0,1-.87.1l.22-.15c-.73,0-1.4,0-2.06,0C34.75,23.53,34.45,23.3,34.12,23.45Z"/><path class="cls-13" d="M14.87,28.85c-.14-.05-.28.11-.42,0a1.12,1.12,0,0,0-.65-1.39c.7-.16,1.26-.31,1.35-1.16.3.58.54,1,1.18,1a.15.15,0,0,1,.12.27c-.59.34-.38.85-.35,1.34a1.33,1.33,0,0,1-.46-.13C15.4,28.61,15.07,28.47,14.87,28.85Z"/><path class="cls-5" d="M57.39,25.38a.33.33,0,0,0-.18-.23c-.34-.13-.64-.33-.53-.74s.27-.93.81-1.09a1.05,1.05,0,0,1,1.17.26.53.53,0,0,1,.1.52c-.2.19-.51.3-.42.68s.3.32.53.36c.21.44.12.76-.36.93-.06-.06-.14-.11-.17-.18a5,5,0,0,1-.19-1.09c0-.15,0-.4-.26-.34s-.18.18-.14.37A.41.41,0,0,1,57.39,25.38Z"/><path class="cls-6" d="M88.71,34.53c.09-.29-.13-.47-.22-.71l1.28-2.17a.84.84,0,0,1,.33-.1c.32,0,.53-.05.48-.43a.13.13,0,0,1,0-.07s0,.05,0,.08a.34.34,0,0,1,0,.1l-.1.88c-.14,0-.17.13-.22.25-.31.76-.64,1.52-1,2.28A1.19,1.19,0,0,1,88.71,34.53Z"/><path class="cls-3" d="M42.9,30.55a.18.18,0,0,1,.19.15,7.7,7.7,0,0,0-1.73.1.48.48,0,0,0-.43.53c0,.43.07.85.11,1.27a.63.63,0,0,1-.55-.16c-.32-.25-.66-.47-1-.7V30.31l2.51.26A1.62,1.62,0,0,0,42.9,30.55Z"/><path class="cls-11" d="M90.17,26.75,90,26.57a1.64,1.64,0,0,1,.6-1c1-.19,1.22-.09,1.61.55a.71.71,0,0,1-.11,1,1,1,0,0,0-.33.5c-.24-.12-.48-.23-.43-.59a.21.21,0,0,0-.29-.24C90.73,27.08,90.46,26.84,90.17,26.75Z"/><path class="cls-11" d="M20.8,34a2,2,0,0,1-.76-.31.89.89,0,0,1-.14-1.5,2.89,2.89,0,0,0,.38-.47.63.63,0,0,1,.71-.28.5.5,0,0,1,.41.57.81.81,0,0,1-.44.6c-.35.13-.37.24-.15.55S21.19,33.68,20.8,34Z"/><path class="cls-12" d="M20.8,34c.39-.27.19-.61,0-.84s-.2-.42.15-.55a.81.81,0,0,0,.44-.6,2,2,0,0,1,.66,1.23c0,.16.07.27-.13.3s-.19.14-.1.3a4.49,4.49,0,0,1,.61,1.06,2.21,2.21,0,0,1-1.24-.21C21.29,34.28,21.05,34.11,20.8,34Z"/><path class="cls-14" d="M63.11,23.27a.8.8,0,0,0,1,.21c.21-.11.42,0,.38.23-.08.44.2.56.49.7l.14.25a4.92,4.92,0,0,1-1,.9V25.2c0-.3-.09-.39-.34-.17s-.2,0-.34-.12C63,24.41,63.15,23.83,63.11,23.27Z"/><path class="cls-14" d="M39.3,28.62l-.43-.39c0-.35.29-.65.21-1,0-.18.13-.23.28-.21a1.21,1.21,0,0,0,.71-.21A1.69,1.69,0,0,1,40,28.05c-.05.13-.08.23-.24.18C39.4,28.13,39.31,28.33,39.3,28.62Z"/><path class="cls-5" d="M98.65,51H96.44c0-.42.4-.33.55-.54l.61-.19a1.64,1.64,0,0,0,.73,0A2,2,0,0,1,98.65,51Z"/><path class="cls-12" d="M57.39,25.38a.41.41,0,0,0,.36-.55c0-.19,0-.33.14-.37s.23.19.26.34a5,5,0,0,0,.19,1.09c0,.07.11.12.17.18a.2.2,0,0,0,0,.26c-.33-.2-.74-.25-1-.57Z"/><path class="cls-6" d="M34.12,23.45c.33-.15.63.08,1,.05.66-.05,1.33,0,2.06,0l-.22.15-2.36.19C34.25,23.86,34.1,23.77,34.12,23.45Z"/><path class="cls-12" d="M98.33,50.24a1.64,1.64,0,0,1-.73,0c-.11-.26-.06-.62-.43-.73a.22.22,0,0,1,0-.08c.25-.12.6,0,.78-.32A4.4,4.4,0,0,1,98.33,50.24Z"/><path class="cls-12" d="M58.87,25.14c-.23,0-.47-.05-.53-.36s.22-.49.42-.68c.24.23.16.58.29.85S59,25.11,58.87,25.14Z"/><path class="cls-15" d="M33.62,38.34a5.85,5.85,0,0,1,1.33.47,8,8,0,0,0,2.92.36.64.64,0,0,1,.2,0c-.53,3-.77,6-1.46,9,0,.06,0,.13,0,.2-.19.28-.13.67-.38.93H35.4c-.36-.18-.16-.57-.31-.83l-.29-2.25-2,2.24c-.36.26-.58.74-1.14.65a.63.63,0,0,0-.64-.45c0-.19.23-.26.18-.45.93-1.94,1.87-3.87,2.72-5.85a2.15,2.15,0,0,0,0-1.44Z"/><path class="cls-16" d="M54.71,37.09a34.94,34.94,0,0,0,3.69,0,5.82,5.82,0,0,1,1.31-.18A35.47,35.47,0,0,1,59,41.27a1.05,1.05,0,0,0-.17.31,9,9,0,0,1-1.45,3,19.39,19.39,0,0,0-1.27,1.84c-.87.92-1.64,1.92-2.58,2.77-.23.2-.39.23-.61.08a1.59,1.59,0,0,0-.66-.39c.57-1.2,1.15-2.41,1.71-3.62.44-.95.85-1.91,1.28-2.86a1.22,1.22,0,0,0,0-.8A31.61,31.61,0,0,1,54.71,37.09Z"/><path class="cls-14" d="M39.5,31.74c.33.23.67.45,1,.7a.63.63,0,0,0,.55.16c.17.17.06.39.12.58.12.43.07,1,.51,1.21a3.55,3.55,0,0,0,2,.44c.09,0,.19,0,.25,0,.32-.21.56-.27.65.21,0,0,.09,0,.14,0,0,.21.18.16.3.2a.94.94,0,0,1-.79.31,5.82,5.82,0,0,0-2.52.27,8.52,8.52,0,0,1-2.76.13,3.86,3.86,0,0,1-1.66-1.31,4.14,4.14,0,0,1-.5-2.47,3,3,0,0,1,.45-1.81,1,1,0,0,1,1-.39.87.87,0,0,1,.8.63c.11.36.22.72.34,1.08C39.35,31.79,39.42,32,39.5,31.74Z"/><path class="cls-8" d="M49,50.9a.42.42,0,0,1-.34.09L38.44,51c0-.57-.53-.5-.85-.69a17.71,17.71,0,0,1,3.14-1.57c.75-.08,1.47-.32,2.23-.33A7.76,7.76,0,0,1,49,50.9Z"/><path class="cls-7" d="M40.73,48.71a17.71,17.71,0,0,0-3.14,1.57,6.64,6.64,0,0,1-1.4-.33l0-.63c.25-.26.19-.65.38-.93A14.31,14.31,0,0,1,40.73,48.71Z"/><path class="cls-14" d="M54.07,51c-1.4,0-2.8.18-4.2.11l-.51,0H52.3a.26.26,0,0,0-.16-.28c-.67-.44-.67-.44-.24-1.14a2.72,2.72,0,0,0,.9.12c.35.41.58,1,1.22,1C54,50.81,54.06,50.92,54.07,51Z"/><path class="cls-12" d="M52.8,49.75a2.72,2.72,0,0,1-.9-.12,2.08,2.08,0,0,1,.38-.72,1.59,1.59,0,0,1,.66.39Z"/><path class="cls-2" d="M25.33,35.66a9,9,0,0,0,1.05-2,2.84,2.84,0,0,1,.58-.77c.12-.15.24-.33.16-.5s-.26.06-.36,0c-.49-.28-.45.15-.55.4s-.09.34-.26.42a35.5,35.5,0,0,1,.67-3.68,3.16,3.16,0,0,0,.07-1.37,5.79,5.79,0,0,1,.11-1.43c0-.19.12-.39.37-.16,0,0,.1,0,.15,0,.56.09.71.34.59.9a.26.26,0,0,1-.28.24,1.41,1.41,0,0,0-.41,0c-.28.07-.35.29-.34.56s.24.27.42.24c.6-.09.74.23.84.75.44,2.22.93,4.42,1.39,6.64.32,1.54.61,3.09.93,4.63.07.33-.06.39-.34.39H24.69c-.31,0-.39-.09-.3-.39a9.15,9.15,0,0,0,.18-.91c0-.23.11-.47-.07-.68a4.76,4.76,0,0,0,2.28-2.72,2.86,2.86,0,0,1,.74-1.1.56.56,0,0,0,.19-.57c-.17-.15-.4.2-.54-.13,0-.11-.12.07-.13.12-.22.93-1.05,1.25-1.73,1.71C25.12,36.07,25.4,35.87,25.33,35.66Z"/><path class="cls-2" d="M33.62,38.34,33.91,41c-.19,0-.38,0-.57,0a.39.39,0,0,1-.45-.32c-.92-2.58-1.73-5.2-2.57-7.81a2.17,2.17,0,0,1,0-.36,3,3,0,0,0,4,.74c-.51,1.29-.79,2.65-1.18,4-.13.45-.17.91.47,1A.88.88,0,0,1,33.62,38.34Z"/><path class="cls-14" d="M20.48,43.53h2.77a68,68,0,0,1-1.44,6.92c-.17.16-.37.1-.57.11-.21-1-.22-2.12-.37-3.17A8.77,8.77,0,0,0,20.48,43.53Z"/><path class="cls-6" d="M31.2,48.24c.05.19-.21.26-.18.45-.24.16-.29.44-.4.67a1.16,1.16,0,0,1-.13.22c-.27.36-.2.6.22.8a2.75,2.75,0,0,1,.93.58c-1.29.11-2.58,0-3.87.06a5.11,5.11,0,0,1-.63-1.23c-.09-.26-.05-.36.26-.37a4.27,4.27,0,0,1,2.21.57,4.2,4.2,0,0,1-.07-1.79A4,4,0,0,1,30.13,47c.17-.26.28-.19.4,0A3.26,3.26,0,0,1,31,48C31,48.09,31.05,48.21,31.2,48.24Z"/><path class="cls-2" d="M28.1,24.16c-.34.46-.12,1-.19,1.49a.21.21,0,0,1-.2.2c-.22,0-.4,0-.47.28a.15.15,0,0,1-.25.06A.12.12,0,0,1,27,26s.17-.05,0-.12c-.51-.25-.12-.7-.23-1,0,0,0,0,0,0A2.12,2.12,0,0,0,28,24S28.1,24.08,28.1,24.16Z"/><path class="cls-2" d="M27.9,23.23c.06.42,0,.7-.52.68s-.65-.12-.61-.61,0-.7.55-.67S28,22.73,27.9,23.23Z"/><path class="cls-11" d="M21.24,50.57c.2,0,.4,0,.57-.11.37.1.75.18,1.12.29.13,0,.33,0,.33.23H21.2Z"/><path class="cls-13" d="M26,45.15c.29-.18.67-.2.81-.6.09.32.12.59-.15.76A.46.46,0,0,1,26,45.15Z"/><path class="cls-6" d="M27.33,51c-1.33.06-2.65,0-4,0C24.68,51,26,51,27.33,51Z"/><path class="cls-13" d="M28,46.33c.27-.09.53,0,.69-.31.08.29,0,.49-.2.56S28.14,46.44,28,46.33Z"/><path class="cls-3" d="M59,41.27a35.47,35.47,0,0,0,.69-4.35l.23-.12c.18.08.38.23.54,0s-.15-.24-.24-.35-.06-.27.13-.35a.45.45,0,0,0,.16-.7c-.51-.19-.28-.53-.25-.83.92.08,1.85.1,2.77.09,0,1.2,0,2.4.09,3.6,0,.5.2.7.68.69a1,1,0,0,1,.3.05,6.14,6.14,0,0,1-.1,1.28c-.44,3.09-.89,6.17-1.33,9.26-.06.2,0,.43-.15.62-.68.08-1.43-.25-2.08.36l1.48.47a11,11,0,0,1-2.29,0c0-.23-.23-.27-.41-.31l-1.72-.44a2.07,2.07,0,0,1,0-.7c.17-.11.14-.3.18-.46A73.67,73.67,0,0,0,59,41.27ZM61.69,36c.06-.16.43,0,.39-.31s-.1-.65-.53-.61c-.25,0-.58.07-.59.37S61.3,35.94,61.69,36Zm-.25.92c.29,0,.53,0,.57-.32,0-.17-.12-.19-.25-.18s-.61.11-.68.36S61.34,36.86,61.44,36.91Z"/><path class="cls-3" d="M70.3,51a2.5,2.5,0,0,1-.82.05H63.65c-.19,0-.38,0-.56,0l.1-.54.24-.8c.34.07.38-.24.48-.42A27.65,27.65,0,0,0,66,44.44c.21-.65.38-1.32.59-2a29.71,29.71,0,0,0,4.21,6.93.53.53,0,0,0,.54.19l.28.83C71.22,50.62,70.64,50.53,70.3,51Z"/><path class="cls-14" d="M95.3,39.49c-.29.13-.25.44-.35.66a16.79,16.79,0,0,1-1.52,2.63.78.78,0,0,0-.19.56c-.21,0-.17.18-.18.31a7.33,7.33,0,0,1-.4,1.53,6.12,6.12,0,0,1-.43,1.1,19,19,0,0,1-1.46,3.13.51.51,0,0,1-.39.27c-.11-.23-.58,0-.54-.44.09-.61.2-1.21.27-1.82a11.22,11.22,0,0,0,.26-2.23,1.31,1.31,0,0,0,.2-.82,2.06,2.06,0,0,1,0-.66c.35-1.21.3-2.47.55-3.69a9.34,9.34,0,0,1,.23-1.81,6,6,0,0,0,4.34-.34l0,.29A4.55,4.55,0,0,0,95.3,39.49Z"/><path class="cls-8" d="M19.53,42.32c0,.1,0,.21,0,.31-.05.41,0,.75.51.82a8,8,0,0,1-.53,2.45,6.16,6.16,0,0,0-.33.94,12,12,0,0,0-2.24,0H13.66c.18-.18.42-.09.63-.1,1.05,0,.89.14.91-.93a4.26,4.26,0,0,0,0-.62.45.45,0,0,1,.32-.5l.14-.13a.59.59,0,0,0,0-.6l-.14-.15c-.11-.09-.32-.07-.31-.29,0-.54,0-1.07,0-1.61,0-.29.24-.23.42-.23h2.85c.92,0,.92,0,1.05-.89Z"/><path class="cls-3" d="M52.8,49.75l.14-.45c.22.15.38.12.61-.08.94-.85,1.71-1.85,2.58-2.77.1.93.22,1.84.31,2.77,0,.23.08.35.33.32l-.1.93-.06.49a10.79,10.79,0,0,1-2.54,0c0-.06,0-.17,0-.18C53.38,50.71,53.15,50.16,52.8,49.75Z"/><path class="cls-11" d="M19.19,46.84a6.16,6.16,0,0,1,.33-.94,8,8,0,0,0,.53-2.45.59.59,0,0,1,.43.08,8.77,8.77,0,0,1,.39,3.87c-.61.88-1.23,1.76-1.84,2.65-.17.25-.21.42.19.52s.8,0,1.06.4H18.21A37.13,37.13,0,0,1,19.19,46.84Z"/><path class="cls-3" d="M19.19,46.84a37.13,37.13,0,0,0-1,4.14s-.06,0-.09,0C17,51.12,17,51.12,17,50s0-2.08,0-3.12A12,12,0,0,1,19.19,46.84Z"/><path class="cls-3" d="M90.38,49.68a.51.51,0,0,0,.39-.27,19,19,0,0,0,1.46-3.13.15.15,0,0,1,.11.15l0,4.59H90.93c-.78,0-.78,0-.68-.77A.79.79,0,0,0,90.38,49.68Z"/><path class="cls-7" d="M35.09,48.5c.15.26-.05.65.31.83,0,.3,0,.6,0,.9l-.09.75H33l-.12-.35a7.2,7.2,0,0,0,.66-1.8A7.89,7.89,0,0,0,35.09,48.5Z"/><path class="cls-3" d="M20.28,51c-.26-.37-.7-.3-1.06-.4s-.36-.27-.19-.52c.61-.89,1.23-1.77,1.84-2.65.15,1.05.16,2.12.37,3.17l0,.41A1.69,1.69,0,0,1,20.28,51Z"/><path class="cls-3" d="M76.5,51l-.62.09a3,3,0,0,0-1.22-.41.32.32,0,0,1,0-.35l1.54-2.25c.14,1,.13,1.87.33,2.71Z"/><path class="cls-11" d="M90.25,50.26c-.1.77-.1.77.68.77h1.38a17.78,17.78,0,0,1-2.73,0c-3.73,0-7.47,0-11.21,0v0H89.52V50.9l-1.62-.51a.65.65,0,0,1,.64-.35c.39,0,.79,0,1.19,0A.62.62,0,0,0,90.25,50.26Z"/><path class="cls-3" d="M35.29,51l.09-.75.81-.28a6.64,6.64,0,0,0,1.4.33c.32.19.85.12.85.69Z"/><path class="cls-2" d="M32.84,50.63,33,51l-1.32,0a2.75,2.75,0,0,0-.93-.58c-.42-.2-.49-.44-.22-.8a1.16,1.16,0,0,0,.13-.22c.31.15.66,0,1,.16A2.46,2.46,0,0,0,32.84,50.63Z"/><path class="cls-5" d="M63.19,50.45l-.1.54H61.94l-1.48-.47c.65-.61,1.4-.28,2.08-.36C62.75,50.26,62.92,50.46,63.19,50.45Z"/><path class="cls-14" d="M56.61,51l.06-.49c.31,0,.56-.19.85-.24l1.72.44c.18,0,.36.08.41.31Z"/><path class="cls-7" d="M92.66,45.18a7.33,7.33,0,0,0,.4-1.53c0-.13,0-.29.18-.31.28.62.56,1.24.85,1.85Z"/><path class="cls-5" d="M70.3,51c.34-.45.92-.36,1.34-.62a2.2,2.2,0,0,0,.92,0l.24.61Z"/><path class="cls-5" d="M78.37,51v0a4.07,4.07,0,0,1-1.77.07s-.06-.11-.1-.16l0-.21.45-.2A7.68,7.68,0,0,1,78.37,51Z"/><path class="cls-5" d="M74.66,50.66a3,3,0,0,1,1.22.41A2.28,2.28,0,0,1,74,51l0-.2A.82.82,0,0,1,74.66,50.66Z"/><path class="cls-2" d="M97.17,49.51c.37.11.32.47.43.73l-.61.19C97.07,50.13,96.79,49.76,97.17,49.51Z"/><path class="cls-17" d="M71.36,49.53a.53.53,0,0,1-.54-.19,29.71,29.71,0,0,1-4.21-6.93c-.21.71-.38,1.38-.59,2a27.65,27.65,0,0,1-2.11,4.79c-.1.18-.14.49-.48.42s-.5-.07-.74-.12c.44-3.09.89-6.17,1.33-9.26a6.14,6.14,0,0,0,.1-1.28c.41,0,.82.09,1.22.16s.42,0,.46-.31.13-.52.21-.85l.08.31c.22.9.22.9,1.19.9h2c.34,1.08.43,2.22.67,3.32a46.57,46.57,0,0,0,1.91,6l.27.82A1.15,1.15,0,0,0,71.36,49.53Z"/><path class="cls-14" d="M88.71,34.53a1.19,1.19,0,0,0,.67.11c.07.13.42.27.07.41-1.06.41-2,1.3-3.21,1.15a.26.26,0,0,0-.2,0c-.47.53-1.11.32-1.68.4h-.92c-.83-.09-1.74,0-2.26-1-.8,1.24-1,2.78-2.32,3.51a.42.42,0,0,0,.63,0c.45-.34.91-.67,1.35-1,.12-.1.3-.14.32-.32.06-.44.29-.6.72-.47,0,.13,0,.3-.07.38-.66.57-.81,1.42-1.24,2.11A2.17,2.17,0,0,1,78.39,41a4.45,4.45,0,0,1-1.66-1c-.43-.45-.58-.93-.34-1.23s.76-.27,1.17-.1c.11.05.24.11.34,0s0-.21,0-.33-.19-.4-.14-.64c1.15-.18,1.84-1.06,2.64-1.76.11-.1.12-.31.18-.47s0-.39.31-.21c.13.08.13-.07.12-.18-.08-.72,0-.79.74-.94a27,27,0,0,1,3.6-.07C86.48,34.22,87.6,34.37,88.71,34.53Z"/><path class="cls-18" d="M77.76,37.78c-.05.24.09.43.14.64s.12.24,0,.33-.23,0-.34,0c-.41-.17-.82-.33-1.17.1s-.09.78.34,1.23a4.45,4.45,0,0,0,1.66,1,25.27,25.27,0,0,1,.38,4.51c0,1.12.12.86-.89,1.1l-2.64-.21c-.21,0-.17-.22-.18-.37a25.78,25.78,0,0,1,.45-5.68,11.62,11.62,0,0,1,.79-2.62.87.87,0,0,1,.25-.32c.3.25.68.17,1,.27Z"/><path class="cls-14" d="M75.24,46.44l2.64.21A37.73,37.73,0,0,1,77,50.57l-.45.2c-.2-.84-.19-1.72-.33-2.71l-1.54,2.25a.32.32,0,0,0,0,.35.82.82,0,0,0-.61.12A23.24,23.24,0,0,1,75.24,46.44Z"/><path class="cls-2" d="M70.52,31.23h.16c1.25,0,1.39.17,1.15,1.44a2.2,2.2,0,0,0-.07.76c.09.56-.21.76-.68.79a7.1,7.1,0,0,1-1.13,0c-.46,0-.73-.24-.69-.8a5.11,5.11,0,0,0-.08-1.74c-.07-.26.06-.44.36-.43h1Z"/><path class="cls-2" d="M72.17,32.68v-.62c0-.76,0-.82.82-.72a11.3,11.3,0,0,0,1.42.21c.31,0,.37.21.33.46-.1.59-.21,1.18-.3,1.77a.36.36,0,0,1-.23.31,2.28,2.28,0,0,1-.95.2c-1,0-1.09-.15-1.09-1.14Z"/><path class="cls-2" d="M76,34.33a1.6,1.6,0,0,1-.32,0c-.82-.19-.89,0-.73-1,.07-.42.11-.85.14-1.27s.13-.36.39-.29c.43.11.87.21,1.3.3a.42.42,0,0,1,.38.55c-.08.42-.11.85-.23,1.26S76.23,34.24,76,34.33Z"/><path class="cls-11" d="M76.4,37.12c-.37.22-.7.29-.88-.24,0-.09-.12-.1-.2-.12-.27,0-.34-.25-.36-.49s.24-.72.11-1.13c0-.16.19-.36.33-.32.48.16.91-.74,1.39,0,.08.13.16.26.34.28l.11.29a1,1,0,0,0-.92,1.52A1.83,1.83,0,0,1,76.4,37.12Z"/><path class="cls-2" d="M78.35,34.34c-1.12,0-1.13,0-.93-1.06,0-.05,0-.11,0-.16.13-.73.3-.81,1-.45l.17.11a.94.94,0,0,1,.39,1.4C78.81,34.47,78.53,34.27,78.35,34.34Z"/><path class="cls-14" d="M76.4,37.12a1.83,1.83,0,0,0-.08-.25,1,1,0,0,1,.92-1.51c.25.11.22.4.38.57l0,.37a.34.34,0,0,0-.09.31c-.56.37,0,.74,0,1.11-.33-.1-.71,0-1-.27C76.52,37.33,76.57,37.17,76.4,37.12Z"/><path class="cls-2" d="M69.33,35.46a1.36,1.36,0,0,1-.07-.6c.65,0,1.28-.36,1.95-.11l.3.08c.22,0,.25.19.24.38s-.13.23-.3.27A5.81,5.81,0,0,1,69.33,35.46Z"/><path class="cls-2" d="M73.17,35.57a2.52,2.52,0,0,1-.83-.08c-.17-.05-.27-.11-.28-.3a.32.32,0,0,1,.27-.37,2.74,2.74,0,0,1,1.7,0c.11,0,.32,0,.25.23s0,.38-.27.44A2.74,2.74,0,0,1,73.17,35.57Z"/><path class="cls-2" d="M69.48,36.71l-.07-.41A3.68,3.68,0,0,1,71,36.09a1.1,1.1,0,0,1,.53.16c.13.07.23.16.18.32s-.18.14-.3.14Z"/><path class="cls-2" d="M77.62,35.93c-.16-.17-.13-.46-.38-.57l-.11-.3a1.55,1.55,0,0,1,1.49,0c.16.19,0,.54-.25.66S77.81,35.69,77.62,35.93Z"/><path class="cls-2" d="M73.1,36.71h-.77c-.11,0-.21,0-.24-.14a.21.21,0,0,1,.14-.29,2.27,2.27,0,0,1,1.79,0c.13.06.24.15.19.31s-.17.15-.29.15Z"/><path class="cls-2" d="M80,34.54c-.25,0-.63,0-.56-.37s0-.7.35-.81c.23-.06.82.47.8.67S80.43,34.63,80,34.54Z"/><path class="cls-2" d="M79.65,35.89c-.28,0-.58,0-.54-.34s0-.67.5-.59c.27,0,.6,0,.59.4S80,36,79.65,35.89Z"/><path class="cls-14" d="M71.36,49.53a1.15,1.15,0,0,1,.78-.22l.42,1.06a2.2,2.2,0,0,1-.92,0Z"/><path class="cls-12" d="M85.35,34.15a27,27,0,0,0-3.6.07c.1-.13.11-.35.32-.38.07.26.29.19.46.19h2.36C85,34.05,85.24,34,85.35,34.15Z"/><path class="cls-2" d="M77.55,36.61a.34.34,0,0,1,.09-.31c.06,0,.13-.08.19-.07.24,0,.65,0,.65.23s-.37.1-.58.14A1.36,1.36,0,0,1,77.55,36.61Z"/><path class="cls-16" d="M63.05,34.65c-.92,0-1.85,0-2.77-.09h-.22v0c-.17-.17-.33-.35-.49-.52,0-.22.32-.12.4-.28l2.76-1.26c.19-.09.43-.15.52-.39.74.11.76-.45.85-.93a5.44,5.44,0,0,1,2-1.42c.13.32.46.24.7.32.78.29.77.27.75,1.05a3.18,3.18,0,0,1-1.18,2.42,5.06,5.06,0,0,1-2.74,1A1.46,1.46,0,0,0,63.05,34.65Z"/><path class="cls-12" d="M66.07,29.7a5.44,5.44,0,0,0-2,1.42,2.58,2.58,0,0,0-.86.64c-.2,0-.34.15-.5.24a5.15,5.15,0,0,1-2.81.79,3.09,3.09,0,0,1-2.35-1.61,5.88,5.88,0,0,1,1.7-2.07l.27-.23a5.87,5.87,0,0,1,1,1.13.68.68,0,0,0,.75.26c1.1-.25,2.21-.48,3.32-.68a1,1,0,0,0,.87-.61c.09-.17.2-.48.44-.1,0,0,.07,0,.1,0s.53-.06.54.15S66.32,29.54,66.07,29.7Z"/><path class="cls-9" d="M95.73,37.87a6,6,0,0,1-4.34.34L90.8,38a4.54,4.54,0,0,1-.25-1.31,4.15,4.15,0,0,0,1.1-.23,3.17,3.17,0,0,0,2.43-3.12.43.43,0,0,0-.3-.46,8.31,8.31,0,0,0-2.31-.46c-.29,0-.41.07-.42.36S91,33.68,91,34.1a.36.36,0,0,1-.39.39c-.22,0-.11-.24-.1-.37,0-.67.05-1.34.08-2l.1-.88c.17-.43.14-.9.28-1.34s-.38-.29-.54-.51c.15-.27.43-.42.63-.65a5,5,0,0,0,.85-.81c.25-.17.28,0,.32.21a.92.92,0,0,0,.27.58,10.64,10.64,0,0,1,1.9,2.23,1.56,1.56,0,0,0,.31.6,12.77,12.77,0,0,1,1.11,4.55A5.08,5.08,0,0,1,95.73,37.87Z"/><path class="cls-2" d="M94.82,24.35a2.17,2.17,0,0,0-.36,0c-.22,0-.43,0-.41-.3s-.11-.59.34-.57S95,23.65,94.82,24.35Z"/><path class="cls-2" d="M18.84,36.92a8.23,8.23,0,0,0,1.21-.1c-.09.59-.17,1.18-.25,1.78Z"/><path class="cls-2" d="M15.51,43.81l.14.15v.6l-.14.13a1.14,1.14,0,0,0-.26,0c-.33,0-.48,0-.48-.42s.15-.47.48-.42A1.14,1.14,0,0,0,15.51,43.81Z"/><path class="cls-2" d="M17.46,39.1c-.36.08-.42-.1-.43-.42s.11-.42.44-.43.43.11.43.44S17.81,39.18,17.46,39.1Z"/><path class="cls-3" d="M96.86,33.63c.07.34-.06.44-.4.45s-.43-.16-.44-.49.16-.39.45-.4S96.93,33.32,96.86,33.63Z"/><path class="cls-2" d="M59.93,32.79A5.15,5.15,0,0,0,62.74,32c.16-.09.3-.24.5-.24v.29c-.09.24-.33.3-.52.39L60,33.7Z"/><path class="cls-14" d="M59.57,34c.16.17.32.35.49.52a7.46,7.46,0,0,1-1.63.17.77.77,0,0,1-.6-.23s-.09-.06-.11-.1,0-.28.05-.27c.49.12.33-.75.85-.53C58.94,33.67,59.16,34,59.57,34Z"/><path class="cls-2" d="M60.06,34.55h.22c0,.3-.26.64.25.83a.45.45,0,0,1-.16.7c-.19.08-.24.19-.13.35s.45.05.24.35-.36.09-.54,0A15.35,15.35,0,0,0,60.06,34.55Z"/><path class="cls-3" d="M23,36.32c.27.13.18.35.09.51a9.77,9.77,0,0,0-.58,1.73,3.34,3.34,0,0,1-1.46-1.35.81.81,0,0,1,.09-1A.77.77,0,0,1,22.1,36,9,9,0,0,0,23,36.32Z"/><path class="cls-2" d="M16.41,31.09c.08.39-.12.45-.45.46s-.42-.13-.44-.45.16-.44.49-.45S16.48,30.76,16.41,31.09Z"/><path class="cls-12" d="M91.89,27.92a5,5,0,0,1-.85.81c0-.28,0-.55-.45-.53a.87.87,0,0,1-.43-.74c0-.24,0-.48,0-.71.29.09.56.33.91.08a.21.21,0,0,1,.29.24c-.05.36.19.47.43.59Z"/><path class="cls-3" d="M25.33,35.66c.07.21-.21.41,0,.63-.35.25-.61.75-1.26.5A9.55,9.55,0,0,0,25.33,35.66Z"/><path class="cls-8" d="M43.65,34.83a3.55,3.55,0,0,1-2-.44c-.44-.2-.39-.78-.51-1.21-.06-.19.05-.41-.12-.58,0-.42-.11-.84-.11-1.27a.48.48,0,0,1,.43-.53,7.7,7.7,0,0,1,1.73-.1c.75,0,.77,0,.74.8C43.79,32.61,43.71,33.72,43.65,34.83Z"/><path class="cls-12" d="M90.57,32.11c0,.67-.07,1.34-.08,2,0,.13-.12.36.1.37A.36.36,0,0,0,91,34.1c0-.42.06-.85.07-1.28s.13-.37.42-.36a8.31,8.31,0,0,1,2.31.46.43.43,0,0,1,.3.46,3.17,3.17,0,0,1-2.43,3.12,4.15,4.15,0,0,1-1.1.23H87.32a.74.74,0,0,0-.72.36,4.76,4.76,0,0,0-2.11-.41s-.09,0-.13-.06c.57-.08,1.21.13,1.68-.4a.26.26,0,0,1,.2,0c1.26.15,2.15-.74,3.21-1.15.35-.14,0-.28-.07-.41.33-.76.66-1.52,1-2.28C90.4,32.24,90.43,32.14,90.57,32.11Z"/><path class="cls-3" d="M35.09,48.5a7.89,7.89,0,0,1-1.59.33c0-.41-.06-.61-.51-.38-.05,0-.13,0-.19,0l2-2.24Z"/><path class="cls-6" d="M32.8,48.49c.06,0,.14,0,.19,0,.45-.23.56,0,.51.38a7.2,7.2,0,0,1-.66,1.8,2.46,2.46,0,0,1-1.25-1.11c0-.13.05-.26.07-.38C32.22,49.23,32.44,48.75,32.8,48.49Z"/><path class="cls-14" d="M31.66,49.14c0,.12-.05.25-.07.38-.31-.12-.66,0-1-.16.11-.23.16-.51.4-.67A.63.63,0,0,1,31.66,49.14Z"/><path class="cls-14" d="M36.19,50l-.81.28c0-.3,0-.6,0-.9h.82Z"/><path class="cls-5" d="M56.77,49.54c-.25,0-.31-.09-.33-.32-.09-.93-.21-1.84-.31-2.77a19.39,19.39,0,0,1,1.27-1.84,9,9,0,0,0,1.45-3,1.05,1.05,0,0,1,.17-.31,73.67,73.67,0,0,1-1.27,7.8c0,.16,0,.35-.18.46Z"/><path class="cls-2" d="M61.69,36c-.39-.05-.75-.14-.73-.55s.34-.35.59-.37c.43,0,.49.31.53.61S61.75,35.83,61.69,36Z"/><path class="cls-12" d="M56.77,49.54h.8a2.07,2.07,0,0,0,0,.7c-.29.05-.54.26-.85.24Z"/><path class="cls-14" d="M62.69,49.53c.24,0,.51-.07.74.12l-.24.8c-.27,0-.44-.19-.65-.3C62.68,50,62.63,49.73,62.69,49.53Z"/><path class="cls-2" d="M61.44,36.91c-.1,0-.42.11-.36-.14s.4-.33.68-.36.27,0,.25.18C62,36.92,61.73,36.94,61.44,36.91Z"/><path class="cls-3" d="M77,50.57a37.73,37.73,0,0,0,.91-3.92c1-.24.88,0,.89-1.1A25.27,25.27,0,0,0,78.39,41a2.17,2.17,0,0,0,2.18-1.24c.43-.69.58-1.54,1.24-2.11.1-.08.09-.25.07-.38-.43-.13-.66,0-.72.47,0,.18-.2.22-.32.32-.44.35-.9.68-1.35,1a.42.42,0,0,1-.63,0c1.36-.73,1.52-2.27,2.32-3.51.52,1,1.43.93,2.26,1,.07,0,.13.06.19.07.73.07.73.06.74.77a29.87,29.87,0,0,0,.09,3.28c0,.38.15.54.55.45a7.91,7.91,0,0,1,1.54-.05.27.27,0,0,1,.32.25l-2.13,3.78h5.63a11.22,11.22,0,0,1-.26,2.23c-.07.61-.18,1.21-.27,1.82a2.35,2.35,0,0,0-.1.79c-.4,0-.8,0-1.19,0a.65.65,0,0,0-.64.35l1.62.51V51H78.37A7.68,7.68,0,0,0,77,50.57Z"/><path class="cls-7" d="M90.37,45.19H84.74l2.13-3.78,1.91-3.24c.22,0,.45,0,.67,0,.45,0,.92.13,1.35-.11l.59.17A9.34,9.34,0,0,0,91.16,40c-.25,1.22-.2,2.48-.55,3.69a2.06,2.06,0,0,0,0,.66A1.31,1.31,0,0,1,90.37,45.19Zm-.25-5.57c-.29,0-.52,0-.49.36s0,.53.41.51.48-.06.45-.42S90.53,39.52,90.12,39.62Z"/><path class="cls-12" d="M89.74,50a2.35,2.35,0,0,1,.1-.79c0,.42.43.21.54.44a.79.79,0,0,1-.13.58A.62.62,0,0,1,89.74,50Z"/><path class="cls-7" d="M15.65,44.56V44A.59.59,0,0,1,15.65,44.56Z"/><path class="cls-2" d="M88.78,38.17l-1.91,3.24a.27.27,0,0,0-.32-.25,7.91,7.91,0,0,0-1.54.05c-.4.09-.51-.07-.55-.45a29.87,29.87,0,0,1-.09-3.28c0-.71,0-.7-.74-.77-.06,0-.12-.05-.19-.07h.92s.09.07.13.06a4.76,4.76,0,0,1,2.11.41L86,38.17Z"/><path class="cls-5" d="M63.25,32.05v-.29a2.58,2.58,0,0,1,.86-.64C64,31.6,64,32.16,63.25,32.05Z"/><path class="cls-6" d="M88.78,38.17H86l.61-1.07a.74.74,0,0,1,.72-.36h3.23A4.54,4.54,0,0,0,90.8,38c-.43.24-.9.06-1.35.11C89.23,38.17,89,38.16,88.78,38.17Z"/><path class="cls-3" d="M90.12,39.62c.41-.1.34.19.37.45s-.14.4-.45.42-.38-.22-.41-.51S89.83,39.58,90.12,39.62Z"/></g></g></svg>