<?xml version="1.0" encoding="iso-8859-1"?>
<!-- Generator: Adobe Illustrator 17.1.0, SVG Export Plug-In . SVG Version: 6.00 Build 0)  -->
<!DOCTYPE svg PUBLIC "-//W3C//DTD SVG 1.1//EN" "http://www.w3.org/Graphics/SVG/1.1/DTD/svg11.dtd">
<svg version="1.1" id="Capa_1" xmlns="http://www.w3.org/2000/svg" xmlns:xlink="http://www.w3.org/1999/xlink" x="0px" y="0px"
	 viewBox="0 0 341.268 341.268" style="enable-background:new 0 0 341.268 341.268;" xml:space="preserve">
<g>
	<path d="M151.444,95.421c0.965,0.655,2.095,1.001,3.268,1.001h0.011c3.215,0,5.831-2.614,5.831-5.827
		c0-0.547-0.075-1.086-0.223-1.607c-2.695-11.825-1.439-21.313,3.733-28.204c6.484-8.638,9.354-19.733,7.677-29.677
		c-1.487-8.856-6.248-16.217-13.755-21.278c-1.948-1.321-4.628-1.314-6.578,0.026c-1.985,1.367-2.916,3.769-2.369,6.132
		c2.918,12.451,0.244,20.377-6.455,32.426c-4.358,7.839-6.136,16.654-5.008,24.821C138.859,82.519,143.661,90.195,151.444,95.421z"
		/>
	<path d="M200.501,91.563c0.913,0.623,1.979,0.952,3.084,0.952h0.005c3.025,0,5.486-2.461,5.486-5.486
		c0-0.504-0.069-1.002-0.205-1.485c-1.885-8.314-1.029-14.945,2.545-19.707c4.959-6.604,7.153-15.104,5.868-22.732
		c-1.15-6.838-4.826-12.522-10.628-16.438c-1.828-1.233-4.311-1.246-6.19,0.035c-1.851,1.28-2.739,3.609-2.216,5.763
		c2.068,8.822,0.244,14.219-4.627,22.979c-3.33,5.989-4.687,12.734-3.821,18.99C190.792,81.607,194.502,87.537,200.501,91.563z"/>
	<path d="M102.765,91.563c0.913,0.623,1.979,0.952,3.084,0.952h0.005c3.025,0,5.486-2.461,5.486-5.486
		c0-0.501-0.069-0.998-0.204-1.481c-1.887-8.316-1.031-14.948,2.543-19.711c4.96-6.605,7.153-15.104,5.868-22.732
		c-1.149-6.838-4.825-12.522-10.628-16.438c-1.827-1.234-4.306-1.249-6.19,0.035c-1.851,1.28-2.739,3.609-2.216,5.763
		c2.068,8.823,0.244,14.22-4.627,22.979c-3.33,5.99-4.687,12.734-3.82,18.99C93.055,81.607,96.765,87.537,102.765,91.563z"/>
	<path d="M286.554,235.363c30.169,0,54.714-24.545,54.714-54.714s-24.544-54.714-54.714-54.714c-3.844,0-7.596,0.403-11.218,1.161
		H31.338c-6.5,0-10.244,2.8-12.241,5.147c-4.089,4.809-4.652,12.008-3.817,17.143c3.513,21.583,13.221,65.331,37.582,101.711
		c-2.049,0.521-4.066,1.054-6.03,1.609C16.195,261.357,0,272.954,0,286.247s16.195,24.891,46.833,33.54
		c28.866,8.149,67.184,12.638,107.895,12.638s79.029-4.488,107.895-12.638c30.638-8.649,46.833-20.247,46.833-33.54
		s-16.195-24.891-46.833-33.54c-1.867-0.527-3.777-1.037-5.722-1.534c3.949-5.917,7.667-12.266,11.146-19.039
		C273.831,234.22,280.061,235.363,286.554,235.363z M311.268,180.65c0,13.627-11.086,24.714-24.714,24.714
		c-2.26,0-4.448-0.311-6.529-0.882c5.394-14.878,9.741-30.971,12.866-47.719C303.457,159.568,311.268,169.213,311.268,180.65z"/>
</g>
<g>
</g>
<g>
</g>
<g>
</g>
<g>
</g>
<g>
</g>
<g>
</g>
<g>
</g>
<g>
</g>
<g>
</g>
<g>
</g>
<g>
</g>
<g>
</g>
<g>
</g>
<g>
</g>
<g>
</g>
</svg>
